<?xml version="1.0" standalone="no"?>
<!DOCTYPE svg PUBLIC "-//W3C//DTD SVG 20010904//EN"
 "http://www.w3.org/TR/2001/REC-SVG-20010904/DTD/svg10.dtd">
<svg version="1.0" xmlns="http://www.w3.org/2000/svg"
 width="128.000000pt" height="128.000000pt" viewBox="0 0 128.000000 128.000000"
 preserveAspectRatio="xMidYMid meet">

<g transform="translate(0.000000,128.000000) scale(0.100000,-0.100000)"
fill="#000000" stroke="none">
<path d="M649 1231 c-119 -87 -149 -142 -149 -267 0 -52 6 -81 24 -119 39 -80
57 -97 97 -93 29 3 34 7 37 31 2 18 -6 43 -23 68 -24 37 -44 99 -32 99 4 0 84
-57 179 -127 l172 -128 -65 -3 c-35 -2 -156 7 -269 19 -240 25 -371 23 -440
-8 -87 -38 -150 -140 -172 -276 -14 -94 -4 -127 40 -127 36 0 52 16 52 53 0
16 4 27 9 25 26 -9 461 -243 461 -248 0 -3 -16 -15 -35 -28 -44 -28 -50 -76
-11 -94 21 -9 32 -6 72 17 97 57 173 158 187 250 4 22 2 83 -4 135 -12 112
-30 141 -76 124 -27 -10 -28 -11 -25 -83 2 -56 -1 -71 -10 -65 -7 4 -89 60
-183 123 l-169 116 59 3 c33 2 128 -5 210 -14 207 -25 415 -25 477 -1 61 24
127 96 174 191 42 86 53 146 31 165 -22 18 -68 10 -81 -14 -6 -11 -12 -22 -13
-24 -3 -4 -385 212 -410 231 -9 8 -7 17 9 38 20 28 20 30 4 54 -24 37 -52 32
-127 -23z m268 -217 c120 -69 224 -131 230 -138 10 -9 8 -18 -7 -43 l-19 -33
-223 147 c-123 80 -227 150 -232 154 -8 7 16 36 31 39 0 0 99 -57 220 -126z
m157 -275 c-36 -40 -46 -35 -263 126 -116 86 -211 159 -211 161 0 3 5 14 10
25 10 17 30 6 245 -138 223 -148 234 -157 219 -174z m-457 -382 c65 -45 72
-53 66 -76 -3 -14 -7 -27 -8 -29 -5 -5 -499 306 -503 317 -2 6 11 19 29 30
l32 20 156 -106 c86 -59 189 -129 228 -156z m-149 -41 c94 -59 172 -111 172
-115 0 -5 -6 -13 -13 -19 -9 -8 -77 23 -265 121 -138 73 -252 136 -252 140 0
4 7 23 15 43 l14 35 78 -49 c43 -27 156 -97 251 -156z"/>
</g>
</svg>
